# xmcd
#
# Track frame offsets:
#	150
#	42435
#	59971
#	81153
#	95458
#	113235
#	134164
#	166333
#	197819
#	228531
#	243158
#	287713
#
# Disc length: 4162 seconds
#
# Revision: 1
# Processed by: cddbd v1.5.2PL0 Copyright (c) Steve Scherf et al.
# Submitted via: audiograbber 1.83.01
#
DISCID=b410400c
DTITLE=Grateful Dead - 71-12-31 Winterland Arena, San Francisco CA
DYEAR=1900
DGENRE=
TTITLE0=Intro > Dancing In The Streets
TTITLE1=Mr Charlie
TTITLE2=Brown Eyed Women
TTITLE3=Beat It On Down The Line
TTITLE4=You Win Again
TTITLE5=Jack Straw
TTITLE6=Sugaree
TTITLE7=El Paso > Chinatown Shuffle
TTITLE8=Tennessee Jed
TTITLE9=Mexicali Blues
TTITLE10=China Cat Sunflower > I Know You Rider
TTITLE11=Next Time You See Me
EXTD=
EXTT0=
EXTT1=
EXTT2=
EXTT3=
EXTT4=
EXTT5=
EXTT6=
EXTT7=
EXTT8=
EXTT9=
EXTT10=
EXTT11=
PLAYORDER=
